<svg id="Layer_1" data-name="Layer 1" xmlns="http://www.w3.org/2000/svg" xmlns:xlink="http://www.w3.org/1999/xlink" width="512" height="512" viewBox="0 0 512 512"><defs><style>.cls-1{fill:url(#linear-gradient);}.cls-2{fill:url(#linear-gradient-2);}.cls-3{fill:url(#linear-gradient-3);}.cls-4{fill:url(#linear-gradient-4);}.cls-5{fill:#fff;}</style><linearGradient id="linear-gradient" x1="250.86" y1="-437.63" x2="257.48" y2="455.39" gradientUnits="userSpaceOnUse"><stop offset="0.34" stop-color="#5b8beb"/><stop offset="0.78" stop-color="#2742a2"/><stop offset="1" stop-color="#112283"/></linearGradient><linearGradient id="linear-gradient-2" x1="-125.25" y1="498.4" x2="-51.75" y2="498.97" gradientTransform="matrix(5.57, 0, 0, -5.57, 749.14, 3044.57)" gradientUnits="userSpaceOnUse"><stop offset="0" stop-color="#ffb900"/><stop offset="0.34" stop-color="#f38000"/><stop offset="0.57" stop-color="#f83c72"/><stop offset="0.78" stop-color="#fc1cbe"/><stop offset="0.93" stop-color="#fe08ed"/><stop offset="1" stop-color="#f0f"/></linearGradient><linearGradient id="linear-gradient-3" x1="-104.59" y1="474.34" x2="-29.65" y2="515.83" gradientTransform="matrix(5.57, 0, 0, -5.57, 749.14, 3044.57)" gradientUnits="userSpaceOnUse"><stop offset="0" stop-color="#ee0a3f"/><stop offset="1" stop-color="#ee0a3f" stop-opacity="0"/></linearGradient><linearGradient id="linear-gradient-4" x1="-164.57" y1="486.05" x2="-127.96" y2="515.54" gradientTransform="translate(-696.47 3012.82) rotate(180) scale(5.51)" gradientUnits="userSpaceOnUse"><stop offset="0" stop-color="#ed6600"/><stop offset="1" stop-color="#f98200"/></linearGradient></defs><rect class="cls-1" width="512" height="512"/><g id="g942"><g id="g71"><path id="path69" class="cls-2" d="M257.14,435.28a16.77,16.77,0,0,1-8.38-2.18C226.9,420.45,65,318.93,58.87,315.83A14.64,14.64,0,0,1,50.5,304.1V161.71a15.41,15.41,0,0,1,7-13.24l1.17-.67c15.66-9.71,68.1-41.71,76.39-46.32a12.66,12.66,0,0,1,6.29-1.76,13.09,13.09,0,0,1,5.94,1.51s73.38,47.83,84.6,52.1A58,58,0,0,0,257,158.61a56.32,56.32,0,0,0,28.15-6.87c11-5.78,81.08-50.26,81.83-50.26a11,11,0,0,1,5.87-1.59,12.32,12.32,0,0,1,6.28,1.76c9.55,5.28,74.55,45.06,77.31,46.82a15.08,15.08,0,0,1,7.29,13.07v142.4a14.46,14.46,0,0,1-8.38,11.72C449.21,319,287.8,420.54,265.52,432.93a16.73,16.73,0,0,1-8.38,2.35"/></g><g id="g79"><path id="path77" class="cls-3" d="M256.3,435.28h.84a16.75,16.75,0,0,0,8.38-2.18c21.86-12.65,183.69-114.17,189.8-117.27a14.48,14.48,0,0,0,8.38-11.73V161.71a15.2,15.2,0,0,0-1.59-7l-205.81,113V435.28"/></g><g id="g970"><path id="path968" class="cls-4" d="M255.59,433.27h-.83a16.59,16.59,0,0,1-8.29-2.15c-21.63-12.52-181.73-113-187.78-116a14.35,14.35,0,0,1-8.29-11.61V162.61A15.08,15.08,0,0,1,52,155.73l203.62,111.8V433.27"/></g></g><g id="g35"><path id="path33" class="cls-5" d="M156.45,208.32h18.77v90.3h32.35v17.82h-51l-.08-108.12"/></g><g id="g41"><path id="path39" class="cls-5" d="M251,235.41a31.79,31.79,0,0,1,25.48,12.25V237H294V316.6H276.51V306A31.82,31.82,0,0,1,251,318.21c-21.83,0-38.4-18.65-38.4-41.42s16.57-41.38,38.4-41.38m3.18,15.94c-14.17,0-23.56,11.15-23.56,25.44s9.54,25.48,23.56,25.48,23.56-11.15,23.56-25.48-9.39-25.44-23.56-25.44"/></g><g id="g47"><path id="path45" class="cls-5" d="M307.64,302.78l41.74-49.86H308.27V237H372v14L330.42,300.7h42.51v15.9H307.64V302.78"/></g></svg>