<?xml version="1.0" encoding="UTF-8" standalone="no"?><!DOCTYPE svg PUBLIC "-//W3C//DTD SVG 1.1//EN" "http://www.w3.org/Graphics/SVG/1.1/DTD/svg11.dtd"><svg width="100%" height="100%" viewBox="0 0 1012 1142" version="1.1" xmlns="http://www.w3.org/2000/svg" xmlns:xlink="http://www.w3.org/1999/xlink" xml:space="preserve" xmlns:serif="http://www.serif.com/" style="fill-rule:evenodd;clip-rule:evenodd;stroke-linejoin:round;stroke-miterlimit:2;"><path id="path2-2" d="M690.793,854.169c-6.642,54.812 -39.854,98.71 -91.299,120.691c-28.649,12.245 -67.117,18.855 -97.565,16.779c-47.499,-1.815 -92.124,-13.367 -133.257,-34.483c-14.695,-7.548 -36.601,-22.619 -53.422,-36.735c-4.261,-3.567 -4.767,-5.853 -1.947,-9.852c1.522,-2.295 4.328,-6.435 10.532,-15.524c8.997,-13.183 10.119,-14.836 11.131,-16.381c2.879,-4.419 7.556,-4.804 12.17,-1.173c0.484,0.377 0.484,0.377 0.85,0.663c0.757,0.587 0.757,0.587 2.543,1.974c1.807,1.409 2.878,2.239 3.312,2.565c44.361,34.744 96.026,54.781 148.185,56.785c72.569,-0.989 124.753,-33.618 134.103,-83.72c10.282,-55.141 -33.003,-102.772 -117.69,-129.322c-26.486,-8.301 -93.433,-35.099 -105.776,-42.339c-57.968,-34.012 -85.07,-78.561 -81.217,-133.586c5.901,-76.275 76.71,-133.162 166.18,-133.543c40.011,-0.082 79.937,8.233 118.294,24.395c13.581,5.725 37.83,18.92 46.202,25.171c4.822,3.541 5.774,7.668 3.01,12.121c-1.543,2.582 -4.094,6.675 -9.473,15.208l-0.06,0.094c-7.08,11.238 -7.301,11.59 -8.925,14.218c-2.806,4.273 -6.106,4.671 -11.166,1.46c-41.044,-27.572 -86.544,-41.444 -136.586,-42.446c-62.3,1.233 -108.995,38.311 -112.065,88.819c-0.816,45.619 33.399,78.925 107.307,104.318c150.023,48.209 207.433,104.729 196.629,193.843m-185.276,-787.528c97.672,0 177.286,92.689 181.011,208.717l-362.017,0c3.724,-116.028 83.338,-208.717 181.006,-208.717m505.484,230.531c-0,-12.048 -9.703,-21.814 -21.668,-21.814l-234.65,0c-5.757,-153.199 -115.109,-275.358 -249.166,-275.358c-134.052,0 -243.404,122.159 -249.161,275.358l-234.986,0.004c-11.782,0.214 -21.268,9.899 -21.268,21.81c0,0.57 0.021,1.135 0.064,1.691l-0.166,0l33.497,738.403c0.004,2.055 0.081,4.128 0.234,6.213c0.034,0.471 0.072,0.937 0.111,1.404l0.072,1.558l0.081,0.082c5.089,51.382 42.379,92.767 93.084,94.676l0.115,0.112l745.392,-0c0.353,0.004 0.706,0.007 1.059,0.007c0.353,-0 0.706,-0.004 1.059,-0.007l1.585,-0l0.036,-0.028c51.589,-1.409 93.377,-43.372 97.791,-95.387l0.028,-0.028l0.035,-0.698c0.043,-0.549 0.082,-1.092 0.116,-1.64c0.082,-1.31 0.136,-2.616 0.158,-3.913l36.55,-741.319l-0.029,-0c0.022,-0.373 0.029,-0.749 0.029,-1.126" style="fill:#ee4d30;"/></svg>