<?xml version="1.0" encoding="UTF-8" standalone="no"?><!DOCTYPE svg PUBLIC "-//W3C//DTD SVG 1.1//EN" "http://www.w3.org/Graphics/SVG/1.1/DTD/svg11.dtd"><svg width="100%" height="100%" viewBox="0 0 1012 1142" version="1.1" xmlns="http://www.w3.org/2000/svg" xmlns:xlink="http://www.w3.org/1999/xlink" xml:space="preserve" xmlns:serif="http://www.serif.com/" style="fill-rule:evenodd;clip-rule:evenodd;stroke-linejoin:round;stroke-miterlimit:2;"><g id="_1500999331408"><path d="M506.03,263.76c53.658,-26.817 118.748,-41.443 178.307,-46.601l66.939,-5.825c73.313,-6.309 146.683,-2.44 220.083,-2.44l40.259,-0.002l0,597.027c0,184.517 -150.883,335.399 -335.462,335.399l-676.156,-0l0,-932.426l40.23,0c73.488,0 146.581,-4.821 220.052,0.871l66.925,5.065c63.568,4.776 121.771,20.197 178.823,48.932Z" style="fill:#4d4c4b;"/><path d="M40.23,249.139l-0,851.958l635.926,0c162.377,0 295.203,-132.862 295.203,-295.178l-0,-556.78c-70.547,0 -145.055,-1.727 -216.598,2.314l-66.954,5.774c-65.516,7.969 -131.793,23.257 -182.012,52.236c-54.21,-31.323 -113.34,-46.894 -181.627,-54.549l-66.934,-5.079c-72.995,-3.404 -147.834,-0.696 -217.004,-0.696Z" style="fill:#5fb74e;"/><path d="M123.711,1101.1l552.445,0c71.94,0 138.032,-26.089 189.346,-69.202c-59.945,-139.314 -198.461,-236.818 -359.724,-236.818c-186.858,-0.001 -343.094,130.891 -382.067,306.02Z" style="fill:#89c45f;"/><path d="M505.795,1101.1l173.804,-2.57c70.976,-0 135.596,-25.03 185.916,-66.61c64.798,-53.548 105.844,-134.636 105.844,-225.998l-0,-556.78c-70.547,0 -145.055,-1.727 -216.598,2.314l-66.954,5.774c-65.516,7.969 -131.793,23.257 -182.012,52.236l0,791.634Z" style="fill:#4a9e4b;"/><path d="M505.795,1101.1l171.443,0c71.939,0 136.963,-26.067 188.277,-69.18c-59.278,-137.751 -200.763,-234.637 -359.72,-236.767l0,305.947Z" style="fill:#5fb74e;"/><path d="M754.762,223.569c-12.793,-125.661 -118.985,-223.569 -247.909,-223.569c-128.874,0 -235.011,97.068 -249.619,222.003l66.934,5.102c11.827,-90.228 88.737,-159.993 182.426,-159.993c93.65,-0 171.226,70.95 181.211,162.222l66.957,-5.765Z" style="fill:#4d4c4b;"/><path d="M614.674,834.363c-29.166,30.839 -58.299,61.7 -87.453,92.591l-21.441,22.728l-21.419,-22.728c-29.158,-30.837 -58.295,-61.752 -87.444,-92.589l-15.1,-16.031l11.026,-19.034c23.391,-40.326 67.132,-62.021 112.935,-62.021c45.852,-0 89.553,21.695 112.954,62.023l11.048,19.032l-15.106,16.029Z" style="fill:#4d4c4b;"/><path d="M593.202,814.13c-29.094,30.868 -58.291,61.699 -87.424,92.584c-29.131,-30.885 -58.289,-61.715 -87.439,-92.584c18.412,-31.738 52.97,-47.422 87.439,-47.365c34.478,-0.057 69.031,15.628 87.424,47.365Z" style="fill:#fdf8b4;"/><path d="M593.202,814.13c-29.094,30.868 -58.291,61.699 -87.424,92.584l0.002,-139.949c34.476,-0.057 69.029,15.628 87.422,47.365Z" style="fill:#fcd066;"/><path d="M287.3,365.256c130.607,-0 236.529,105.988 236.529,236.53c0.001,130.602 -105.923,236.54 -236.529,236.54c-130.618,-0 -236.492,-105.938 -236.492,-236.54c-0,-130.542 105.874,-236.529 236.492,-236.53Z" style="fill:#4d4c4b;"/><path d="M287.3,405.498c108.403,0 196.305,87.916 196.305,196.288c0,108.383 -87.902,196.293 -196.305,196.293c-108.432,-0.002 -196.287,-87.91 -196.287,-196.293c-0,-108.372 87.855,-196.286 196.287,-196.288Z" style="fill:#eeefee;"/><path d="M287.3,405.498c89.46,0 164.961,59.896 188.611,141.743c-23.65,81.822 -99.151,141.713 -188.611,141.713c-89.494,-0.001 -164.918,-59.891 -188.564,-141.713c23.646,-81.847 99.07,-141.741 188.564,-141.743Z" style="fill:#fefefe;"/><path d="M724.27,365.256c130.636,-0 236.507,105.988 236.507,236.53c0.002,130.602 -105.871,236.54 -236.508,236.54c-130.609,-0 -236.537,-105.886 -236.537,-236.54c-0,-130.542 105.927,-236.529 236.538,-236.53Z" style="fill:#4d4c4b;"/><path d="M724.27,405.498c108.4,0 196.304,87.916 196.304,196.288c0.001,108.383 -87.906,196.293 -196.305,196.293c-108.394,-0.002 -196.275,-87.91 -196.275,-196.293c0,-108.372 87.881,-196.286 196.276,-196.288Z" style="fill:#eeefee;"/><path d="M724.27,405.498c89.443,0 164.955,59.896 188.565,141.743c-23.609,81.822 -99.122,141.713 -188.566,141.713c-89.485,-0.001 -164.961,-59.891 -188.615,-141.713c23.654,-81.847 99.13,-141.741 188.616,-141.743Z" style="fill:#fefefe;"/><path d="M311.971,479.721c70.007,-0 126.798,56.758 126.798,126.693c-0,70.05 -56.791,126.802 -126.798,126.802c-70.05,0 -126.79,-56.752 -126.79,-126.802c-0,-23.332 6.351,-45.188 17.368,-63.983c9.054,22.383 30.949,38.091 56.617,38.091c33.704,-0.002 61.075,-27.273 61.075,-61.003c0,-15.178 -5.542,-29.03 -14.655,-39.665c2.106,-0.133 4.265,-0.132 6.385,-0.133Z" style="fill:#4d4c4b;"/><path d="M699.557,479.721c70.071,-0 126.828,56.758 126.828,126.693c0,70.05 -56.757,126.802 -126.829,126.802c-69.981,0 -126.734,-56.752 -126.734,-126.802c-0,-23.332 6.313,-45.188 17.31,-63.983c9.092,22.383 31.029,38.091 56.668,38.091c33.712,-0.002 61.04,-27.273 61.04,-61.003c0,-15.178 -5.482,-29.03 -14.63,-39.665c2.136,-0.133 4.229,-0.132 6.347,-0.133Z" style="fill:#4d4c4b;"/></g></svg>